<?xml version="1.0" encoding="UTF-8"?>
<!-- Created with Inkscape (http://www.inkscape.org/) -->
<svg width="186.63mm" height="42.882mm" version="1.1" viewBox="0 0 186.63 42.882" xmlns="http://www.w3.org/2000/svg">
 <g transform="translate(-.93802 -.66885)">
  <g transform="translate(1.0709 17.849)">
   <g transform="matrix(5.5595 0 0 5.5595 -258.82 -290.95)" fill="#3a3a3a" stroke-width=".2646" style="inline-size:43.9483;white-space:pre" aria-label="Instaclone">
    <path d="m50.373 49.492c-0.15522 0-0.32807 0.09178-0.51857 0.27523-0.1905 0.17639-0.31042 0.40916-0.35981 0.69843-0.64911 0.14111-1.1641 0.35636-1.5451 0.64564-0.37394 0.28928-0.56096 0.64905-0.56096 1.0794 0 0.23989 0.10585 0.35991 0.31752 0.35991 0.11289 0 0.20458-0.04939 0.27513-0.14816 0.07761-0.09878 0.11647-0.23641 0.11647-0.41279 0-0.62089 0.45156-1.009 1.3547-1.1642-0.01411 0.381-0.02119 0.86433-0.02119 1.4499 0 0.57855-0.02115 1.0971-0.06349 1.5557-0.02822 0.31044-0.07761 0.568-0.14816 0.77261-0.0635 0.20461-0.1482 0.4057-0.25404 0.60325-0.10583 0.1905-0.24691 0.33512-0.4233 0.4339-0.17639 0.09878-0.38456 0.14816-0.62444 0.14816s-0.41982-0.05637-0.53977-0.16926c-0.11994-0.11994-0.17986-0.22934-0.17986-0.32812 0-0.10583 0.02115-0.20815 0.06349-0.30692 0.04233-0.10583 0.06349-0.17637 0.06349-0.21165 0-0.07761-0.0847-0.11637-0.25403-0.11637-0.16228 0-0.29273 0.06346-0.39151 0.19046-0.09878 0.11994-0.14816 0.27518-0.14816 0.46568 0 0.31044 0.12691 0.53976 0.38091 0.68793 0.26106 0.14817 0.55038 0.22225 0.86788 0.22225 1.6228 0 2.4342-1.1854 2.4342-3.556l-0.04238-1.9685c0.47978-0.13406 0.71972-0.3739 0.71972-0.71962 0-0.14817-0.04939-0.26464-0.14816-0.34931-0.09172-0.09172-0.21528-0.13757-0.3705-0.13757zm17.05 0.16936c-0.54328 0-0.88898 0.56095-1.0371 1.6828-0.15073 1.1636-0.23703 2.1209-0.25896 2.8724-0.14298 0.25963-0.30009 0.50167-0.47135 0.72595-0.14111 0.18344-0.29626 0.32452-0.46559 0.4233-0.16933 0.09878-0.36343 0.14816-0.58215 0.14816-0.21167 0-0.39151-0.1094-0.53967-0.32812-0.14817-0.22578-0.22234-0.51855-0.22234-0.87838 0-0.35983 0.09532-0.73377 0.28582-1.1218 0.1905-0.39511 0.41628-0.59265 0.67733-0.59265 0.07761 0 0.14107 0.03177 0.19046 0.09528 0.04939 0.0635 0.07408 0.13404 0.07408 0.21165l-0.08468 0.53976c0 0.13406 0.06001 0.20105 0.17995 0.20105 0.14111 0 0.26104-0.067 0.35981-0.20105 0.09878-0.13406 0.14816-0.33868 0.14816-0.61385 0-0.14817-0.067-0.27871-0.20105-0.3916-0.127-0.11994-0.30339-0.17995-0.52917-0.17995-0.53622 0-0.9807 0.21171-1.3335 0.63504-0.28154 0.339-0.44846 0.80666-0.50073 1.403-0.15221 0.30667-0.30638 0.56929-0.46243 0.78776-0.21167 0.28928-0.37744 0.43744-0.49738 0.44449-0.04233 0-0.06349-0.09523-0.06349-0.28573 0-0.98778 0.03178-1.5628 0.09527-1.7251 0.04939-0.09172 0.09169-0.23988 0.12697-0.44449 0.04233-0.20461 0.06349-0.34224 0.06349-0.4128 0-0.26811-0.05293-0.4022-0.15876-0.4022-0.09878 0-0.22224 0.05647-0.37041 0.16936-0.14111 0.10583-0.23988 0.19762-0.29633 0.27523-0.28222-0.29633-0.53623-0.44458-0.76201-0.44458-0.52211 0-0.94543 0.21879-1.27 0.65623-0.26296 0.36231-0.41698 0.77055-0.46215 1.2248-0.17842 0.37869-0.35947 0.69365-0.5432 0.94475-0.21167 0.28928-0.38107 0.43744-0.50807 0.44449-0.08467 0-0.12697-0.14108-0.12697-0.4233 0-0.52916 0.0423-1.3088 0.12697-2.3389 0.31044-0.0635 0.59977-0.15528 0.86788-0.27523 0.26811-0.127 0.39866-0.22577 0.3916-0.29633 0-0.07761-0.06355-0.11638-0.19055-0.11638-0.04233 0-0.17987 0.05293-0.4127 0.15876-0.22578 0.10583-0.43394 0.17637-0.62444 0.21165 0.09878-1.1007 0.14816-1.718 0.14816-1.852 0-0.28928-0.04584-0.43399-0.13757-0.43399-0.10583 0-0.21523 0.06001-0.32812 0.17995-0.11289 0.11994-0.17989 0.24695-0.20105 0.38101-0.08467 0.52211-0.15874 1.0371-0.22224 1.5451-0.11289-0.05645-0.24344-0.08468-0.3916-0.08468-0.14817 0-0.22224 0.05647-0.22224 0.16936 0.02117 0.21872 0.20818 0.36334 0.56096 0.43389-0.01593 0.15699-0.03061 0.30797-0.04397 0.45304-0.48475 0.35799-0.90417 0.68327-1.2578 0.9757-0.02117-0.02117-0.05639-0.06701-0.10578-0.13757l-0.11647-0.14816c-0.02117-0.02822-0.05294-0.07407-0.09527-0.13757-0.04233-0.0635-0.07402-0.11643-0.09518-0.15876-0.01411-0.04939-0.02827-0.1093-0.04239-0.17986-0.01411-0.07056-0.02119-0.16588-0.02119-0.28582 0-0.11994 0.06709-0.27164 0.20114-0.45509 0.13406-0.1905 0.27159-0.28573 0.4127-0.28573 0.14817 0 0.22224 0.06355 0.22224 0.19055l-0.0211 0.15876c0 0.05645 0.0423 0.08459 0.12697 0.08459 0.11289 0 0.16936-0.11992 0.16936-0.35981 0-0.10583-0.05293-0.20815-0.15876-0.30692-0.10583-0.10583-0.25399-0.15876-0.44449-0.15876-0.30339 0-0.58918 0.13055-0.85728 0.3916-0.26811 0.254-0.4022 0.58917-0.4022 1.0054 0 0.17647 0.04207 0.34246 0.12604 0.49794-0.0032 7e-3 -0.0063 0.01353-0.0096 0.02063-0.20461 0.45861-0.41278 0.83609-0.62444 1.1324-0.21167 0.28928-0.37744 0.43744-0.49738 0.44449-0.04233 0-0.06349-0.07762-0.06349-0.23284 0-0.16228 0.03178-0.5433 0.09528-1.143 0.07055-0.60678 0.10578-1.0653 0.10578-1.3758 0-0.14817-0.05992-0.27172-0.17986-0.3705-0.11289-0.09878-0.24344-0.14816-0.3916-0.14816-0.14817 0-0.31757 0.10231-0.50807 0.30692-0.18344 0.20461-0.40922 0.52571-0.67733 0.96316-0.26811 0.43744-0.41627 0.67729-0.44449 0.71962 0-0.15522 0.0177-0.43393 0.05298-0.83609 0.14111-0.33161 0.21165-0.6844 0.21165-1.0583 0-0.07761-0.01062-0.13054-0.03179-0.15876s-0.07409-0.04229-0.15876-0.04229c-0.07761 0-0.20806 0.067-0.39151 0.20105-0.17639 0.13406-0.29985 0.23637-0.37041 0.30692-0.07055 0.07056-0.10587 0.27518-0.10587 0.61385v0.62444c0 0.23989-0.02115 0.59966-0.06349 1.0794-0.03528 0.47272-0.05289 0.75143-0.05289 0.83609 0 0.07761 0.07753 0.14116 0.23275 0.19055 0.15522 0.04233 0.31754 0.06349 0.48688 0.06349 0.11289 0 0.16936-0.09877 0.16936-0.29633l-0.0106-0.32812c0-0.21872 0.02115-0.45158 0.06349-0.69852 0.02117-0.13406 0.20464-0.4409 0.55036-0.92068 0.34572-0.48683 0.55734-0.73031 0.63495-0.73031 0.08467 0 0.12706 0.11648 0.12706 0.34931s-0.02125 0.58562-0.06358 1.0583c-0.03528 0.46567-0.05289 0.80429-0.05289 1.016 0 0.20461 0.0247 0.33162 0.07408 0.381 0.14111 0.11289 0.34928 0.16936 0.62444 0.16936 0.381 0 0.85017-0.59272 1.4076-1.7781 0.0148-0.03114 0.02903-0.06155 0.04276-0.09146 0.0072 0.0097 0.01409 0.01913 0.02073 0.02798 0.04939 0.05645 0.11993 0.13406 0.21165 0.23284 0.09172 0.09172 0.15527 0.15881 0.19055 0.20115-0.46566 0.45155-0.69852 0.78663-0.69852 1.0054 0 0.30339 0.15878 0.45509 0.47628 0.45509 0.3175 0 0.5785-0.09523 0.78311-0.28573 0.20461-0.1905 0.30692-0.41982 0.30692-0.68793 0-0.26811-0.07762-0.51504-0.23284-0.74082 0.34502-0.29054 0.7083-0.56285 1.0897-0.81704-0.04906 0.59079-0.07362 1.0679-0.07362 1.4309 0 0.51505 0.03168 0.81845 0.09518 0.91018 0.07055 0.09172 0.29633 0.13757 0.67733 0.13757 0.33346 0 0.7295-0.43766 1.188-1.3129 0.03442 0.40091 0.13582 0.70801 0.30423 0.92133 0.21167 0.26106 0.4586 0.3916 0.74082 0.3916 0.28222 0 0.51154-0.10939 0.68793-0.32812 0.18344-0.22578 0.36692-0.56794 0.55036-1.0265-0.01411 0.33867-0.02119 0.61029-0.02119 0.8149 0 0.19756 0.0247 0.32102 0.07408 0.37041 0.14111 0.11289 0.34928 0.16936 0.62444 0.16936 0.30673 0 0.67065-0.38424 1.0917-1.1525 0.03261 0.25437 0.13075 0.49738 0.29466 0.72911 0.21166 0.28222 0.5186 0.42339 0.92077 0.42339 0.52916 0 0.97019-0.19754 1.323-0.59265 0.16933-0.1905 0.30687-0.37043 0.4127-0.53976 0.02075-0.03242 0.04237-0.06742 0.06479-0.10485 0.0068 0.63628 0.04167 0.99243 0.10457 1.0679 0.02822 0.03528 0.10584 0.07404 0.23284 0.11638 0.13405 0.03528 0.27867 0.05298 0.43389 0.05298 0.3166 0 0.69411-0.4093 1.1325-1.2278 0.05537 0.25743 0.1541 0.49385 0.29624 0.70921 0.23283 0.34572 0.56791 0.51857 1.0054 0.51857 0.59972 0 1.0619-0.18347 1.3865-0.55036 0.32456-0.36689 0.51148-0.84668 0.56087-1.4393 0.23155-0.0906 0.43617-0.18838 0.61385-0.29335v0.11349c0 0.23989-0.02115 0.59966-0.06349 1.0794-0.03528 0.47272-0.05289 0.75143-0.05289 0.83609 0 0.07761 0.07753 0.14116 0.23275 0.19055 0.15522 0.04233 0.31754 0.06349 0.48688 0.06349 0.11289 0 0.16936-0.09877 0.16936-0.29633l-0.0106-0.32812c0-0.21872 0.02115-0.45158 0.06349-0.69852 0.02117-0.13406 0.20464-0.4409 0.55036-0.92068 0.34572-0.48683 0.55734-0.73031 0.63495-0.73031 0.08467 0 0.12706 0.11648 0.12706 0.34931s-0.02125 0.58562-0.06358 1.0583c-0.03528 0.46567-0.05289 0.80429-0.05289 1.016 0 0.20461 0.02469 0.33162 0.07408 0.381 0.14111 0.11289 0.34928 0.16936 0.62444 0.16936 0.32184 0 0.70665-0.42296 1.1544-1.2688 0.03441 0.30082 0.14703 0.57561 0.33788 0.82429 0.23283 0.29633 0.54676 0.44449 0.94187 0.44449 0.68439 0 1.2594-0.37748 1.7251-1.1324 0.43039-0.70555 0.64564-1.2347 0.64564-1.5875 0-0.05645-0.02115-0.08468-0.06349-0.08468-0.03527 0-0.07059 0.02823-0.10587 0.08468-0.02822 0.05644-0.07052 0.14814-0.12697 0.27514-0.21166 0.49389-0.46568 0.93491-0.76201 1.323-0.14111 0.18344-0.29635 0.32452-0.46568 0.4233-0.16933 0.09878-0.3598 0.14816-0.57146 0.14816s-0.39868-0.09877-0.56096-0.29633c-0.15522-0.20461-0.24691-0.44446-0.27513-0.71963 0.51505-0.01411 0.94891-0.16227 1.3017-0.44449 0.35983-0.28928 0.53976-0.6456 0.53976-1.0689 0-0.22578-0.07762-0.40217-0.23284-0.52917-0.15522-0.13406-0.35277-0.20115-0.59265-0.20115-0.51505 0-0.93484 0.19764-1.2594 0.59275-0.26038 0.31698-0.41624 0.75434-0.46773 1.312-0.17321 0.36453-0.34891 0.67155-0.52712 0.92105-0.21167 0.28928-0.37744 0.43744-0.49738 0.44449-0.04233 0-0.06349-0.07762-0.06349-0.23284 0-0.16228 0.03177-0.5433 0.09527-1.143 0.07056-0.60678 0.10578-1.0653 0.10578-1.3758 0-0.14817-0.05992-0.27172-0.17986-0.3705-0.11289-0.09878-0.24344-0.14816-0.3916-0.14816-0.14817 0-0.31757 0.10231-0.50807 0.30692-0.18344 0.20461-0.40913 0.52571-0.67724 0.96316-0.26811 0.43744-0.41636 0.67729-0.44458 0.71962 0-0.15522 0.0177-0.43393 0.05298-0.83609 0.14111-0.33161 0.21165-0.6844 0.21165-1.0583 0-0.07761-0.01062-0.13054-0.03179-0.15876s-0.07409-0.04229-0.15876-0.04229c-0.07761 0-0.20806 0.067-0.39151 0.20105-0.17639 0.13406-0.29985 0.23637-0.37041 0.30692-0.07056 0.07056-0.10587 0.27518-0.10587 0.61385v0.19845c-9e-3 0.0056-0.01178 0.0073-0.02119 0.0132-0.10583 0.0635-0.29984 0.14112-0.58206 0.23284-0.0071-0.46566-0.12698-0.84314-0.35981-1.1324-0.23283-0.28928-0.48684-0.4339-0.76201-0.4339-0.26811 0-0.50088 0.07054-0.69843 0.21165-0.43744 0-0.79731 0.20817-1.0795 0.62444-0.27517 0.41628-0.41279 0.86075-0.41279 1.3335 0 0.0034-1.3e-5 0.0067 0 0.01013-0.14639 0.29132-0.29456 0.54198-0.44449 0.75188-0.21167 0.28928-0.37744 0.43744-0.49738 0.44449-0.07761 0-0.11637-0.21516-0.11637-0.64554 0-0.43744 0.01053-0.94901 0.0317-1.5346 0.55739-1.1359 0.83609-2.1625 0.83609-3.0797 0-0.127-0.02823-0.25755-0.08468-0.3916-0.05645-0.14111-0.14814-0.21165-0.27513-0.21165zm-16.965 0.19046c0.07055 0 0.10587 0.05647 0.10587 0.16936 0 0.127-0.12701 0.22931-0.381 0.30692 0.02822-0.3175 0.11991-0.47628 0.27513-0.47628zm16.976 0.16936c0.05645 0 0.08458 0.11294 0.08458 0.33871 0 0.56444-0.18338 1.3299-0.55027 2.2965 0.09878-1.7568 0.25402-2.6352 0.46568-2.6352zm2.5082 2.4765c0.22578 0 0.3881 0.14117 0.48688 0.42339 0.10583 0.28222 0.16575 0.59615 0.17986 0.94187h-0.12697c-0.23989 0-0.4516-0.08116-0.63504-0.24344-0.17639-0.16228-0.26454-0.37389-0.26454-0.63495 0-0.11994 0.03177-0.22934 0.09527-0.32812 0.0635-0.10583 0.15165-0.15876 0.26454-0.15876zm7.4401 0.09527c0.20461 0 0.30692 0.15878 0.30692 0.47628s-0.09877 0.57496-0.29633 0.77251c-0.1905 0.19756-0.4939 0.33164-0.91017 0.4022 0.01411-0.41628 0.1058-0.79375 0.27513-1.1324 0.16933-0.34572 0.3775-0.51857 0.62444-0.51857zm-16.658 0.08468c0.11994 0 0.25757 0.05293 0.41279 0.15876 0.16228 0.09878 0.27512 0.20463 0.33862 0.31752-0.0071 0.07056-0.01768 0.17632-0.03179 0.31743-0.0071 0.13405-0.01405 0.22928-0.0211 0.28573-0.45155 1.1642-0.79381 1.7463-1.0266 1.7463-0.1905 0-0.34565-0.127-0.46559-0.381-0.11289-0.254-0.16936-0.57855-0.16936-0.97366 0-0.39511 0.1093-0.73727 0.32802-1.0265 0.22578-0.29633 0.43748-0.44449 0.63504-0.44449zm8.4454 0.06349c-0.07761 0.16933-0.11637 0.37042-0.11637 0.60325s0.11284 0.44799 0.33862 0.64554c0.22578 0.1905 0.50094 0.28582 0.8255 0.28582l0.381-0.02119c-0.02822 0.37394-0.12699 0.69141-0.29633 0.95247-0.16933 0.254-0.40564 0.38101-0.70903 0.38101s-0.52562-0.1517-0.66674-0.45509c-0.14111-0.31044-0.21174-0.635-0.21174-0.97366 0-0.70555 0.1517-1.1783 0.45509-1.4182zm-13.568 2.1167c0.22578 0.33161 0.261 0.60323 0.10578 0.8149-0.07056 0.08467-0.1587 0.12697-0.26454 0.12697-0.17639 0-0.26463-0.08461-0.26463-0.25394 0-0.17639 0.14117-0.40571 0.42339-0.68793zm7.1639-5.6138h17.336v7.7132h-17.336z" fill="#3a3a3a" stroke-width=".2646"/>
   </g>
  </g>
 </g>
</svg>
